<svg width="368" height="175" xmlns="http://www.w3.org/2000/svg" xmlns:xlink="http://www.w3.org/1999/xlink" overflow="hidden"><defs><filter id="fx0" x="-10%" y="-10%" width="120%" height="120%" filterUnits="userSpaceOnUse" primitiveUnits="userSpaceOnUse"><feComponentTransfer color-interpolation-filters="sRGB"><feFuncR type="discrete" tableValues="0 0"/><feFuncG type="discrete" tableValues="0 0"/><feFuncB type="discrete" tableValues="0 0"/><feFuncA type="linear" slope="0.4" intercept="0"/></feComponentTransfer><feGaussianBlur stdDeviation="0.834992 0.834992"/></filter><filter id="fx1" x="-10%" y="-10%" width="120%" height="120%" filterUnits="userSpaceOnUse" primitiveUnits="userSpaceOnUse"><feComponentTransfer color-interpolation-filters="sRGB"><feFuncR type="discrete" tableValues="0 0"/><feFuncG type="discrete" tableValues="0 0"/><feFuncB type="discrete" tableValues="0 0"/><feFuncA type="linear" slope="0.4" intercept="0"/></feComponentTransfer><feGaussianBlur stdDeviation="0.834992 0.834992"/></filter><filter id="fx2" x="-10%" y="-10%" width="120%" height="120%" filterUnits="userSpaceOnUse" primitiveUnits="userSpaceOnUse"><feComponentTransfer color-interpolation-filters="sRGB"><feFuncR type="discrete" tableValues="0 0"/><feFuncG type="discrete" tableValues="0 0"/><feFuncB type="discrete" tableValues="0 0"/><feFuncA type="linear" slope="0.4" intercept="0"/></feComponentTransfer><feGaussianBlur stdDeviation="0.696768 0.696768"/></filter><filter id="fx3" x="-10%" y="-10%" width="120%" height="120%" filterUnits="userSpaceOnUse" primitiveUnits="userSpaceOnUse"><feComponentTransfer color-interpolation-filters="sRGB"><feFuncR type="discrete" tableValues="0 0"/><feFuncG type="discrete" tableValues="0 0"/><feFuncB type="discrete" tableValues="0 0"/><feFuncA type="linear" slope="0.4" intercept="0"/></feComponentTransfer><feGaussianBlur stdDeviation="0.696768 0.696768"/></filter><filter id="fx4" x="-10%" y="-10%" width="120%" height="120%" filterUnits="userSpaceOnUse" primitiveUnits="userSpaceOnUse"><feComponentTransfer color-interpolation-filters="sRGB"><feFuncR type="discrete" tableValues="0 0"/><feFuncG type="discrete" tableValues="0 0"/><feFuncB type="discrete" tableValues="0 0"/><feFuncA type="linear" slope="0.4" intercept="0"/></feComponentTransfer><feGaussianBlur stdDeviation="0.696768 0.696768"/></filter><filter id="fx5" x="-10%" y="-10%" width="120%" height="120%" filterUnits="userSpaceOnUse" primitiveUnits="userSpaceOnUse"><feComponentTransfer color-interpolation-filters="sRGB"><feFuncR type="discrete" tableValues="0 0"/><feFuncG type="discrete" tableValues="0 0"/><feFuncB type="discrete" tableValues="0 0"/><feFuncA type="linear" slope="0.4" intercept="0"/></feComponentTransfer><feGaussianBlur stdDeviation="0.696768 0.696768"/></filter><clipPath id="clip6"><rect x="466" y="264" width="368" height="175"/></clipPath><clipPath id="clip7"><rect x="32" y="27" width="47" height="43"/></clipPath><clipPath id="clip8"><rect x="0" y="0" width="111" height="110"/></clipPath><clipPath id="clip9"><rect x="32" y="27" width="126" height="43"/></clipPath><clipPath id="clip10"><rect x="0" y="0" width="188" height="110"/></clipPath><clipPath id="clip11"><rect x="0" y="0" width="16" height="33"/></clipPath><clipPath id="clip12"><rect x="0" y="0" width="17" height="33"/></clipPath><clipPath id="clip13"><rect x="1" y="0" width="127" height="35"/></clipPath><clipPath id="clip14"><rect x="0" y="0" width="128" height="35"/></clipPath><clipPath id="clip15"><rect x="0" y="0" width="21" height="35"/></clipPath><clipPath id="clip16"><rect x="0" y="0" width="21" height="35"/></clipPath><clipPath id="clip17"><rect x="1" y="0" width="138" height="35"/></clipPath><clipPath id="clip18"><rect x="0" y="0" width="140" height="35"/></clipPath></defs><g clip-path="url(#clip6)" transform="translate(-466 -264)"><g clip-path="url(#clip7)" filter="url(#fx0)" transform="translate(509 262)"><g clip-path="url(#clip8)"><path d="M20.4844-6.91406C20.4844-4.75781 19.8438-3.06641 18.5625-1.83984 17.2812-0.613281 15.5547 0 13.3828 0L2.20312 0 2.20312-36.6797 13.3828-36.6797C15.5547-36.6797 17.2812-36.0586 18.5625-34.8164 19.8438-33.5742 20.4844-31.875 20.4844-29.7188ZM14.9766-7.82812 14.9766-28.8984C14.9766-30.9453 13.9062-31.9687 11.7656-31.9688L7.6875-31.9688 7.6875-4.71094 11.625-4.71094C13.8594-4.71094 14.9766-5.75 14.9766-7.82812ZM42.75-3.35156C42.75-1.11719 41.6328 0 39.3984 0L27.9609 0C25.7891 0 24.7031-1.11719 24.7031-3.35156L24.7031-33.3047C24.7031-35.5547 25.7891-36.6797 27.9609-36.6797L39.3984-36.6797C41.6328-36.6797 42.75-35.5547 42.75-33.3047L42.75-24.7266 37.2891-24.7266 37.2891-31.9688 30.1875-31.9688 30.1875-4.71094 37.2891-4.71094 37.2891-12.4219 42.75-12.4219Z" fill="#00B050" transform="translate(33.2385 67)"/></g></g><path d="M20.4844-6.91406C20.4844-4.75781 19.8438-3.06641 18.5625-1.83984 17.2812-0.613281 15.5547 0 13.3828 0L2.20312 0 2.20312-36.6797 13.3828-36.6797C15.5547-36.6797 17.2812-36.0586 18.5625-34.8164 19.8438-33.5742 20.4844-31.875 20.4844-29.7188ZM14.9766-7.82812 14.9766-28.8984C14.9766-30.9453 13.9062-31.9687 11.7656-31.9688L7.6875-31.9688 7.6875-4.71094 11.625-4.71094C13.8594-4.71094 14.9766-5.75 14.9766-7.82812ZM42.75-3.35156C42.75-1.11719 41.6328 0 39.3984 0L27.9609 0C25.7891 0 24.7031-1.11719 24.7031-3.35156L24.7031-33.3047C24.7031-35.5547 25.7891-36.6797 27.9609-36.6797L39.3984-36.6797C41.6328-36.6797 42.75-35.5547 42.75-33.3047L42.75-24.7266 37.2891-24.7266 37.2891-31.9688 30.1875-31.9688 30.1875-4.71094 37.2891-4.71094 37.2891-12.4219 42.75-12.4219Z" fill="#00B050" transform="translate(541.294 328)"/><g clip-path="url(#clip9)" filter="url(#fx1)" transform="translate(554 262)"><g clip-path="url(#clip10)"><path d="M17.4141 0 2.20312 0 2.20312-36.6797 17.2734-36.6797 17.2734-31.8281 7.6875-31.8281 7.6875-21.1172 15.9375-21.1172 15.9375-16.3594 7.6875-16.3594 7.6875-4.85156 17.4141-4.85156ZM39.4844 0 33.5547 0 29.5234-12.9141 25.4688 0 19.6328 0 19.6328-0.1875 26.4766-18.7734C22.1797-30.6484 20.0391-36.6172 20.0547-36.6797L25.9141-36.6797 29.5703-24.7266 33.25-36.6797 39.0625-36.6797 39.0625-36.4688 32.6406-18.9141ZM60.0885-16.7109C60.0885-14.4297 58.9714-13.2891 56.737-13.2891L47.8542-13.2891 47.8542 0 42.3698 0 42.3698-36.6797 56.737-36.6797C58.9714-36.6797 60.0885-35.5547 60.0885-33.3047ZM54.5573-18 54.5573-31.9688 47.8542-31.9688 47.8542-18ZM79.2474 0 64.0365 0 64.0365-36.6797 79.1068-36.6797 79.1068-31.8281 69.5208-31.8281 69.5208-21.1172 77.7708-21.1172 77.7708-16.3594 69.5208-16.3594 69.5208-4.85156 79.2474-4.85156ZM101.81 0 96.0911 0 90.0443-17.0391C90.0443-17.0391 90.0443-18.1406 90.0443-20.3438L95.4349-20.3438 95.4349-31.9688 88.5208-31.9688 88.5208 0 83.0365 0 83.0365-36.6797 97.5911-36.6797C99.7943-36.6797 100.896-35.5547 100.896-33.3047L100.896-19.9688C100.896-18.4219 100.372-17.4219 99.3255-16.9688 98.763-16.7344 97.5755-16.6172 95.763-16.6172ZM121.141-31.8281 115.094-31.8281 115.094 0 109.633 0 109.633-31.8281 103.586-31.8281 103.586-36.6797 121.141-36.6797Z" fill="#FF0000" transform="translate(33.0718 67)"/></g></g><path d="M17.4141 0 2.20312 0 2.20312-36.6797 17.2734-36.6797 17.2734-31.8281 7.6875-31.8281 7.6875-21.1172 15.9375-21.1172 15.9375-16.3594 7.6875-16.3594 7.6875-4.85156 17.4141-4.85156ZM39.4844 0 33.5547 0 29.5234-12.9141 25.4688 0 19.6328 0 19.6328-0.1875 26.4766-18.7734C22.1797-30.6484 20.0391-36.6172 20.0547-36.6797L25.9141-36.6797 29.5703-24.7266 33.25-36.6797 39.0625-36.6797 39.0625-36.4688 32.6406-18.9141ZM60.0885-16.7109C60.0885-14.4297 58.9714-13.2891 56.737-13.2891L47.8542-13.2891 47.8542 0 42.3698 0 42.3698-36.6797 56.737-36.6797C58.9714-36.6797 60.0885-35.5547 60.0885-33.3047ZM54.5573-18 54.5573-31.9688 47.8542-31.9688 47.8542-18ZM79.2474 0 64.0365 0 64.0365-36.6797 79.1068-36.6797 79.1068-31.8281 69.5208-31.8281 69.5208-21.1172 77.7708-21.1172 77.7708-16.3594 69.5208-16.3594 69.5208-4.85156 79.2474-4.85156ZM101.81 0 96.0911 0 90.0443-17.0391C90.0443-17.0391 90.0443-18.1406 90.0443-20.3438L95.4349-20.3438 95.4349-31.9688 88.5208-31.9688 88.5208 0 83.0365 0 83.0365-36.6797 97.5911-36.6797C99.7943-36.6797 100.896-35.5547 100.896-33.3047L100.896-19.9688C100.896-18.4219 100.372-17.4219 99.3255-16.9688 98.763-16.7344 97.5755-16.6172 95.763-16.6172ZM121.141-31.8281 115.094-31.8281 115.094 0 109.633 0 109.633-31.8281 103.586-31.8281 103.586-36.6797 121.141-36.6797Z" fill="#FF0000" transform="translate(586.127 328)"/><g clip-path="url(#clip11)" filter="url(#fx2)" transform="translate(578 348)"><g clip-path="url(#clip12)"><path d="M4.06122 4.39423 11.9987 4.39423 11.9987 6.3161 6.23309 6.3161 6.23309 15.4411 11.4831 15.4411 11.4831 17.3942 6.23309 17.3942 6.23309 26.9255 12.0925 26.9255 12.0925 28.8474 4.06122 28.8474Z" stroke="#FFFFFF" stroke-linejoin="round" stroke-miterlimit="10" fill="#FFFFFF" fill-rule="evenodd"/></g></g><path d="M581.247 351.58 589.185 351.58 589.185 353.502 583.419 353.502 583.419 362.627 588.669 362.627 588.669 364.58 583.419 364.58 583.419 374.111 589.278 374.111 589.278 376.033 581.247 376.033Z" stroke="#FFFFFF" stroke-linejoin="round" stroke-miterlimit="10" fill="#FFFFFF" fill-rule="evenodd"/><text fill="#000000" fill-opacity="0" font-family="Arial,Arial_MSFontService,sans-serif" font-size="24.4531" x="581.247" y="372.977">E</text><g clip-path="url(#clip13)" filter="url(#fx3)" transform="translate(589 346)"><g clip-path="url(#clip14)"><path d="M117.581 8.30585 115.222 22.798 119.922 22.798ZM82.5807 8.30585 80.2224 22.798 84.9221 22.798ZM106.881 4.10175 109.257 4.10175 109.257 30.8474 106.881 30.8474ZM91.7443 4.10175 100.699 4.10175C101.258 4.10175 101.713 4.27834 102.067 4.63153 102.42 4.98472 102.596 5.44045 102.596 5.99872L102.596 16.1501C102.596 17.4375 101.73 18.0812 99.9987 18.0812 99.8278 18.0812 99.5772 18.0727 99.2468 18.0556 98.9164 18.0385 98.6771 18.03 98.529 18.03 100.067 22.291 101.599 26.5635 103.126 30.8474L100.631 30.8474 95.6579 16.5261 95.9826 16.0475 100.221 16.0475 100.221 6.2038 94.1198 6.2038 94.1198 30.8474 91.7443 30.8474ZM62.7443 4.10175 65.1198 4.10175 65.1198 15.8596 71.5627 15.8596 71.5627 4.10175 73.9382 4.10175 73.9382 30.8474 71.5627 30.8474 71.5627 17.9958 65.1198 17.9958 65.1198 30.8474 62.7443 30.8474ZM46.7443 4.10175 48.5217 4.10175 55.5285 23.4304 55.5285 4.10175 57.7673 4.10175 57.7673 30.8474 56.1266 30.8474 48.9831 11.1769 48.9831 30.8474 46.7443 30.8474ZM34.7443 4.10175 43.426 4.10175 43.426 6.2038 37.1198 6.2038 37.1198 16.1843 42.862 16.1843 42.862 18.3205 37.1198 18.3205 37.1198 28.7453 43.5285 28.7453 43.5285 30.8474 34.7443 30.8474ZM21.6413 4.10175 28.6652 4.10175C29.2235 4.10175 29.6792 4.27834 30.0324 4.63153 30.3856 4.98472 30.5622 5.44045 30.5622 5.99872L30.5622 12.2194 28.1696 12.2194 28.1696 6.2038 22.1198 6.2038 22.1198 28.7453 28.1696 28.7453 28.1696 19.4997 25.3156 19.4997 25.3156 17.4489 30.5622 17.4489 30.5622 28.9504C30.5622 29.5086 30.3856 29.9644 30.0324 30.3176 29.6792 30.6708 29.2235 30.8474 28.6652 30.8474L21.6413 30.8474C21.083 30.8474 20.6273 30.6708 20.2741 30.3176 19.9209 29.9644 19.7443 29.5086 19.7443 28.9504L19.7443 5.99872C19.7443 5.44045 19.9209 4.98472 20.2741 4.63153 20.6273 4.27834 21.083 4.10175 21.6413 4.10175ZM4.74433 4.10175 6.52167 4.10175 13.5285 23.4304 13.5285 4.10175 15.7673 4.10175 15.7673 30.8474 14.1266 30.8474 6.9831 11.1769 6.9831 30.8474 4.74433 30.8474ZM116.453 4.03339 118.794 4.03339 123.528 30.8474 121.17 30.8474 120.23 24.9001 114.915 24.9001 113.975 30.8474 111.685 30.8474 111.685 30.779ZM81.4528 4.03339 83.7941 4.03339 88.528 30.8474 86.1696 30.8474 85.2297 24.9001 79.9147 24.9001 78.9748 30.8474 76.6848 30.8474 76.6848 30.779Z" stroke="#FFFFFF" stroke-linejoin="round" stroke-miterlimit="10" fill="#FFFFFF" fill-rule="evenodd"/></g></g><path d="M705.767 353.492 703.408 367.984 708.108 367.984ZM670.767 353.492 668.408 367.984 673.108 367.984ZM695.067 349.288 697.443 349.288 697.443 376.033 695.067 376.033ZM679.93 349.288 688.885 349.288C689.444 349.288 689.899 349.464 690.253 349.817 690.606 350.171 690.782 350.626 690.782 351.185L690.782 361.336C690.782 362.623 689.916 363.267 688.185 363.267 688.014 363.267 687.763 363.259 687.433 363.242 687.102 363.224 686.863 363.216 686.715 363.216 688.253 367.477 689.785 371.749 691.312 376.033L688.817 376.033 683.844 361.712 684.169 361.233 688.407 361.233 688.407 351.39 682.306 351.39 682.306 376.033 679.93 376.033ZM650.93 349.288 653.306 349.288 653.306 361.046 659.749 361.046 659.749 349.288 662.124 349.288 662.124 376.033 659.749 376.033 659.749 363.182 653.306 363.182 653.306 376.033 650.93 376.033ZM634.93 349.288 636.708 349.288 643.714 368.616 643.714 349.288 645.953 349.288 645.953 376.033 644.313 376.033 637.169 356.363 637.169 376.033 634.93 376.033ZM622.93 349.288 631.612 349.288 631.612 351.39 625.306 351.39 625.306 361.37 631.048 361.37 631.048 363.506 625.306 363.506 625.306 373.931 631.714 373.931 631.714 376.033 622.93 376.033ZM609.827 349.288 616.851 349.288C617.409 349.288 617.865 349.464 618.218 349.817 618.572 350.171 618.748 350.626 618.748 351.185L618.748 357.405 616.356 357.405 616.356 351.39 610.306 351.39 610.306 373.931 616.356 373.931 616.356 364.686 613.502 364.686 613.502 362.635 618.748 362.635 618.748 374.136C618.748 374.695 618.572 375.15 618.218 375.504 617.865 375.857 617.409 376.033 616.851 376.033L609.827 376.033C609.269 376.033 608.813 375.857 608.46 375.504 608.107 375.15 607.93 374.695 607.93 374.136L607.93 351.185C607.93 350.626 608.107 350.171 608.46 349.817 608.813 349.464 609.269 349.288 609.827 349.288ZM592.93 349.288 594.708 349.288 601.714 368.616 601.714 349.288 603.953 349.288 603.953 376.033 602.313 376.033 595.169 356.363 595.169 376.033 592.93 376.033ZM704.639 349.219 706.98 349.219 711.714 376.033 709.356 376.033 708.416 370.086 703.101 370.086 702.161 376.033 699.871 376.033 699.871 375.965ZM669.639 349.219 671.98 349.219 676.714 376.033 674.356 376.033 673.416 370.086 668.101 370.086 667.161 376.033 664.871 376.033 664.871 375.965Z" stroke="#FFFFFF" stroke-linejoin="round" stroke-miterlimit="10" fill="#FFFFFF" fill-rule="evenodd"/><text fill="#000000" fill-opacity="0" font-family="Arial,Arial_MSFontService,sans-serif" font-size="26.814" x="592.93" y="372.682">NGENHARIA</text><g clip-path="url(#clip15)" filter="url(#fx4)" transform="translate(608 388)"><g clip-path="url(#clip16)"><path d="M9.26031 17.9274 6.81647 19.4997 6.81647 28.7453 12.6612 28.7453 12.6612 17.9274ZM6.4234 4.10175 13.191 4.10175C13.7492 4.10175 14.2078 4.27834 14.5667 4.63153 14.9256 4.98472 15.105 5.44045 15.105 5.99872L15.105 11.6042 12.7296 11.6042 12.7296 6.2038 6.88483 6.2038 6.88483 14.2531 9.29449 15.8596 16.9678 15.8596 16.9678 17.9274 15.0025 17.9274 15.0025 30.8474 6.35504 30.8474C5.79677 30.8474 5.34389 30.6708 4.9964 30.3176 4.64891 29.9644 4.47516 29.5086 4.47516 28.9504L4.47516 19.8586C4.47516 19.0952 4.76569 18.5256 5.34674 18.1496L7.34625 16.8508C6.71962 16.4748 6.09869 16.0988 5.48346 15.7228 4.85683 15.2329 4.54352 14.6405 4.54352 13.9455L4.54352 5.99872C4.54352 5.44045 4.72011 4.98472 5.0733 4.63153 5.42649 4.27834 5.87653 4.10175 6.4234 4.10175Z" stroke="#FFFFFF" stroke-linejoin="round" stroke-miterlimit="10" fill="#FFFFFF" fill-rule="evenodd"/></g></g><path d="M616.446 405.113 614.002 406.686 614.002 415.931 619.847 415.931 619.847 405.113ZM613.609 391.288 620.377 391.288C620.935 391.288 621.394 391.464 621.753 391.817 622.112 392.171 622.291 392.626 622.291 393.185L622.291 398.79 619.915 398.79 619.915 393.39 614.071 393.39 614.071 401.439 616.48 403.046 624.154 403.046 624.154 405.113 622.188 405.113 622.188 418.033 613.541 418.033C612.983 418.033 612.53 417.857 612.182 417.504 611.835 417.15 611.661 416.695 611.661 416.136L611.661 407.045C611.661 406.281 611.952 405.712 612.533 405.336L614.532 404.037C613.906 403.661 613.285 403.285 612.669 402.909 612.043 402.419 611.729 401.826 611.729 401.131L611.729 393.185C611.729 392.626 611.906 392.171 612.259 391.817 612.612 391.464 613.062 391.288 613.609 391.288Z" stroke="#FFFFFF" stroke-linejoin="round" stroke-miterlimit="10" fill="#FFFFFF" fill-rule="evenodd"/><text fill="#000000" fill-opacity="0" font-family="Arial,Arial_MSFontService,sans-serif" font-size="26.7456" x="611.661" y="414.69">&amp; </text><g clip-path="url(#clip17)" filter="url(#fx5)" transform="translate(628 388)"><g clip-path="url(#clip18)"><path d="M129.247 8.30585 126.889 22.798 131.589 22.798ZM89.7865 6.2038 89.7865 28.7453 96.3319 28.7453 96.3319 6.2038ZM62.7865 6.2038 62.7865 28.7453 69.3319 28.7453 69.3319 6.2038ZM118.548 4.10175 120.923 4.10175 120.923 30.8474 118.548 30.8474ZM105.308 4.10175 112.332 4.10175C112.89 4.10175 113.346 4.27834 113.699 4.63153 114.052 4.98472 114.229 5.44045 114.229 5.99872L114.229 12.2194 111.836 12.2194 111.836 6.2038 105.786 6.2038 105.786 28.7453 111.836 28.7453 111.836 19.4997 108.982 19.4997 108.982 17.4489 114.229 17.4489 114.229 28.9504C114.229 29.5086 114.052 29.9644 113.699 30.3176 113.346 30.6708 112.89 30.8474 112.332 30.8474L105.308 30.8474C104.75 30.8474 104.294 30.6708 103.941 30.3176 103.588 29.9644 103.411 29.5086 103.411 28.9504L103.411 5.99872C103.411 5.44045 103.588 4.98472 103.941 4.63153 104.294 4.27834 104.75 4.10175 105.308 4.10175ZM89.308 4.10175 96.7933 4.10175C97.3516 4.10175 97.8102 4.27834 98.1691 4.63153 98.528 4.98472 98.7074 5.44045 98.7074 5.99872L98.7074 28.9504C98.7074 29.5086 98.528 29.9644 98.1691 30.3176 97.8102 30.6708 97.3516 30.8474 96.7933 30.8474L89.308 30.8474C88.7497 30.8474 88.294 30.6708 87.9408 30.3176 87.5876 29.9644 87.411 29.5086 87.411 28.9504L87.411 5.99872C87.411 5.44045 87.5876 4.98472 87.9408 4.63153 88.294 4.27834 88.7497 4.10175 89.308 4.10175ZM76.411 4.10175 78.7865 4.10175 78.7865 28.7453 84.9559 28.7453 84.9559 30.8474 76.411 30.8474ZM62.308 4.10175 69.7933 4.10175C70.3516 4.10175 70.8102 4.27834 71.1691 4.63153 71.528 4.98472 71.7074 5.44045 71.7074 5.99872L71.7074 28.9504C71.7074 29.5086 71.528 29.9644 71.1691 30.3176 70.8102 30.6708 70.3516 30.8474 69.7933 30.8474L62.308 30.8474C61.7497 30.8474 61.294 30.6708 60.9408 30.3176 60.5876 29.9644 60.411 29.5086 60.411 28.9504L60.411 5.99872C60.411 5.44045 60.5876 4.98472 60.9408 4.63153 61.294 4.27834 61.7497 4.10175 62.308 4.10175ZM45.411 4.10175 47.1884 4.10175 54.1952 23.4304 54.1952 4.10175 56.434 4.10175 56.434 30.8474 54.7933 30.8474 47.6498 11.1769 47.6498 30.8474 45.411 30.8474ZM32.308 4.10175 39.1952 4.10175C39.7535 4.10175 40.2149 4.27834 40.5795 4.63153 40.9441 4.98472 41.1263 5.44045 41.1263 5.99872L41.1263 12.2194 38.7338 12.2194 38.7338 6.2038 32.7865 6.2038 32.7865 28.7453 38.7338 28.7453 38.7338 22.1657 41.1263 22.1657 41.1263 28.9504C41.1263 29.5086 40.9441 29.9644 40.5795 30.3176 40.2149 30.6708 39.7535 30.8474 39.1952 30.8474L32.308 30.8474C31.7497 30.8474 31.294 30.6708 30.9408 30.3176 30.5876 29.9644 30.411 29.5086 30.411 28.9504L30.411 5.99872C30.411 5.44045 30.5876 4.98472 30.9408 4.63153 31.294 4.27834 31.7497 4.10175 32.308 4.10175ZM18.411 4.10175 27.0927 4.10175 27.0927 6.2038 20.7865 6.2038 20.7865 16.1843 26.5287 16.1843 26.5287 18.3205 20.7865 18.3205 20.7865 28.7453 27.1952 28.7453 27.1952 30.8474 18.411 30.8474ZM4.94129 4.10175 15.6224 4.10175 15.6224 6.2038 11.4867 6.2038 11.4867 30.8474 9.11121 30.8474 9.11121 6.2038 4.94129 6.2038ZM128.12 4.03339 130.461 4.03339 135.195 30.8474 132.836 30.8474 131.896 24.9001 126.581 24.9001 125.641 30.8474 123.351 30.8474 123.351 30.779Z" stroke="#FFFFFF" stroke-linejoin="round" stroke-miterlimit="10" fill="#FFFFFF" fill-rule="evenodd"/></g></g><path d="M756.433 395.492 754.075 409.984 758.775 409.984ZM716.972 393.39 716.972 415.931 723.518 415.931 723.518 393.39ZM689.972 393.39 689.972 415.931 696.518 415.931 696.518 393.39ZM745.734 391.288 748.109 391.288 748.109 418.033 745.734 418.033ZM732.494 391.288 739.518 391.288C740.076 391.288 740.532 391.464 740.885 391.817 741.238 392.171 741.415 392.626 741.415 393.185L741.415 399.405 739.022 399.405 739.022 393.39 732.972 393.39 732.972 415.931 739.022 415.931 739.022 406.686 736.168 406.686 736.168 404.635 741.415 404.635 741.415 416.136C741.415 416.695 741.238 417.15 740.885 417.504 740.532 417.857 740.076 418.033 739.518 418.033L732.494 418.033C731.936 418.033 731.48 417.857 731.127 417.504 730.774 417.15 730.597 416.695 730.597 416.136L730.597 393.185C730.597 392.626 730.774 392.171 731.127 391.817 731.48 391.464 731.936 391.288 732.494 391.288ZM716.494 391.288 723.979 391.288C724.538 391.288 724.996 391.464 725.355 391.817 725.714 392.171 725.893 392.626 725.893 393.185L725.893 416.136C725.893 416.695 725.714 417.15 725.355 417.504 724.996 417.857 724.538 418.033 723.979 418.033L716.494 418.033C715.936 418.033 715.48 417.857 715.127 417.504 714.774 417.15 714.597 416.695 714.597 416.136L714.597 393.185C714.597 392.626 714.774 392.171 715.127 391.817 715.48 391.464 715.936 391.288 716.494 391.288ZM703.597 391.288 705.972 391.288 705.972 415.931 712.142 415.931 712.142 418.033 703.597 418.033ZM689.494 391.288 696.979 391.288C697.538 391.288 697.996 391.464 698.355 391.817 698.714 392.171 698.893 392.626 698.893 393.185L698.893 416.136C698.893 416.695 698.714 417.15 698.355 417.504 697.996 417.857 697.538 418.033 696.979 418.033L689.494 418.033C688.936 418.033 688.48 417.857 688.127 417.504 687.774 417.15 687.597 416.695 687.597 416.136L687.597 393.185C687.597 392.626 687.774 392.171 688.127 391.817 688.48 391.464 688.936 391.288 689.494 391.288ZM672.597 391.288 674.374 391.288 681.381 410.616 681.381 391.288 683.62 391.288 683.62 418.033 681.979 418.033 674.836 398.363 674.836 418.033 672.597 418.033ZM659.494 391.288 666.381 391.288C666.939 391.288 667.401 391.464 667.765 391.817 668.13 392.171 668.312 392.626 668.312 393.185L668.312 399.405 665.92 399.405 665.92 393.39 659.972 393.39 659.972 415.931 665.92 415.931 665.92 409.352 668.312 409.352 668.312 416.136C668.312 416.695 668.13 417.15 667.765 417.504 667.401 417.857 666.939 418.033 666.381 418.033L659.494 418.033C658.936 418.033 658.48 417.857 658.127 417.504 657.774 417.15 657.597 416.695 657.597 416.136L657.597 393.185C657.597 392.626 657.774 392.171 658.127 391.817 658.48 391.464 658.936 391.288 659.494 391.288ZM645.597 391.288 654.279 391.288 654.279 393.39 647.972 393.39 647.972 403.37 653.715 403.37 653.715 405.506 647.972 405.506 647.972 415.931 654.381 415.931 654.381 418.033 645.597 418.033ZM632.127 391.288 642.808 391.288 642.808 393.39 638.673 393.39 638.673 418.033 636.297 418.033 636.297 393.39 632.127 393.39ZM755.305 391.219 757.647 391.219 762.381 418.033 760.022 418.033 759.082 412.086 753.767 412.086 752.827 418.033 750.537 418.033 750.537 417.965Z" stroke="#FFFFFF" stroke-linejoin="round" stroke-miterlimit="10" fill="#FFFFFF" fill-rule="evenodd"/><text fill="#000000" fill-opacity="0" font-family="Arial,Arial_MSFontService,sans-serif" font-size="26.814" x="632.127" y="414.682">TECNOLOGIA</text><path d="M481.5 316C481.5 306.335 490.007 298.5 500.5 298.5 510.993 298.5 519.5 306.335 519.5 316 519.5 325.665 510.993 333.5 500.5 333.5 490.007 333.5 481.5 325.665 481.5 316Z" stroke="#00B050" stroke-width="1.33333" stroke-miterlimit="8" fill="#00B050" fill-rule="evenodd"/><path d="M520.5 369C520.5 360.992 529.902 354.5 541.5 354.5 553.098 354.5 562.5 360.992 562.5 369 562.5 377.008 553.098 383.5 541.5 383.5 529.902 383.5 520.5 377.008 520.5 369Z" stroke="#00B050" stroke-width="1.33333" stroke-miterlimit="8" fill="#00B050" fill-rule="evenodd"/><path d="M565.382 345.277C564.237 343.498 564.842 341.068 566.734 339.851 568.627 338.633 571.089 339.088 572.234 340.868 573.379 342.647 572.773 345.077 570.881 346.294 568.989 347.512 566.527 347.057 565.382 345.277Z" stroke="#00B050" stroke-width="1.33333" stroke-miterlimit="8" fill="#00B050" fill-rule="evenodd"/><path d="M467.5 415C467.5 402.021 480.26 391.5 496 391.5 511.74 391.5 524.5 402.021 524.5 415 524.5 427.979 511.74 438.5 496 438.5 480.26 438.5 467.5 427.979 467.5 415Z" stroke="#00B050" stroke-width="1.33333" stroke-miterlimit="8" fill="#00B050" fill-rule="evenodd"/><path d="M571.5 405.5C571.5 398.873 579.111 393.5 588.5 393.5 597.889 393.5 605.5 398.873 605.5 405.5 605.5 412.127 597.889 417.5 588.5 417.5 579.111 417.5 571.5 412.127 571.5 405.5Z" stroke="#00B050" stroke-width="1.33333" stroke-miterlimit="8" fill="#00B050" fill-rule="evenodd"/><path d="M507.926 332.259 511.892 329.555 530.757 359.244 529.367 360.192 507.926 332.259Z" stroke="#00B050" stroke-width="1.33333" stroke-miterlimit="8" fill="#00B050" fill-rule="evenodd"/><path d="M520.278 405.29 508.649 394.188 528.641 378.746 532.717 382.638 520.278 405.29Z" stroke="#00B050" stroke-width="1.33333" stroke-miterlimit="8" fill="#00B050" fill-rule="evenodd"/><path d="M0 0 6.13344 0 4.68481 31.0034 2.53504 31.0034 0 0Z" stroke="#00B050" stroke-width="1.33333" stroke-miterlimit="8" fill="#00B050" fill-rule="evenodd" transform="matrix(0.633662 -0.77361 -0.77361 -0.633662 575.257 403.592)"/><path d="M565.708 344.911 566.85 345.902 555.178 358.805 554.778 358.458 565.708 344.911Z" stroke="#00B050" stroke-width="1.33333" stroke-miterlimit="8" fill="#00B050" fill-rule="evenodd"/></g></svg>